# xmcd
#
# Track frame offsets:
#	150
#	13592
#	31050
#	43582
#	61226
#	80243
#	93766
#	104441
#	119137
#	137787
#	151083
#	163618
#	179787
#	193038
#	205559
#	217028
#	239045
#
# Disc length: 3372 seconds
#
# Revision: 0
# Processed by: cddbd v1.5.2PL0 Copyright (c) Steve Scherf et al.
# Submitted via: EasyCDDAExtractor 12.0.1.1
#
DISCID=f10d2a11
DTITLE=Various Artist - Motown 50 - CD 02
DYEAR=2008
DGENRE=Soul
TTITLE0=The Temptations - Papa Was A Rollin' Stone
TTITLE1=Jimmy Ruffin - What Becomes Of The Brokenhearted
TTITLE2=Martha Reeves and The Vandellas - Heatwave
TTITLE3=The Velvelettes - Needle In A Haystack
TTITLE4=Smokey Robinson and The Miracles - The Tracks Of My Tears
TTITLE5=The Temptations - Ain't Too Proud To Beg
TTITLE6=The Supremes - Stop! In The Name Of Love
TTITLE7=The Supremes - Stoned Love
TTITLE8=The Supremes - Baby Love
TTITLE9=Martha Reeves and The Vandellas - Dancing In The Street
TTITLE10=Michael Jackson - Rockin' Robin
TTITLE11=Martha Reeves and The Vandellas - Nowhere To Run
TTITLE12=Diana Ross and Lionel Richie - Endless Love
TTITLE13=Edwin Starr - Twenty-Five Miles
TTITLE14=Stevie Wonder - For Once In My Life
TTITLE15=The Temptations - Get Ready
TTITLE16=Marvin Gaye - Mercy Mercy Me (The Ecology)
EXTD=
EXTT0=
EXTT1=
EXTT2=
EXTT3=
EXTT4=
EXTT5=
EXTT6=
EXTT7=
EXTT8=
EXTT9=
EXTT10=
EXTT11=
EXTT12=
EXTT13=
EXTT14=
EXTT15=
EXTT16=
PLAYORDER=
